<mxfile host="app.diagrams.net" modified="2022-12-24T14:24:45.264Z" agent="5.0 (Windows NT 10.0; Win64; x64) AppleWebKit/537.36 (KHTML, like Gecko) Chrome/108.0.0.0 Safari/537.36" version="20.7.4" etag="Xi1s8FzY8PlTVCFUNR4X" type="github">
  <diagram id="70WwbHgh3a_FQlrIAN0H" name="페이지-1">
    <mxGraphModel dx="1195" dy="1799" grid="1" gridSize="10" guides="1" tooltips="1" connect="1" arrows="1" fold="1" page="1" pageScale="1" pageWidth="827" pageHeight="1169" math="0" shadow="0">
      <root>
        <mxCell id="0" />
        <mxCell id="1" parent="0" />
        <mxCell id="Ivi0cPDOFDJ35AiVsCSt-1" value="이용자" style="shape=umlActor;verticalLabelPosition=bottom;verticalAlign=top;html=1;outlineConnect=0;" vertex="1" parent="1">
          <mxGeometry x="50" y="-70" width="30" height="60" as="geometry" />
        </mxCell>
        <mxCell id="Ivi0cPDOFDJ35AiVsCSt-3" value="게시판 서비스" style="shape=umlFrame;whiteSpace=wrap;html=1;width=90;height=30;" vertex="1" parent="1">
          <mxGeometry x="140" y="-200" width="630" height="610" as="geometry" />
        </mxCell>
        <mxCell id="Ivi0cPDOFDJ35AiVsCSt-16" style="rounded=0;orthogonalLoop=1;jettySize=auto;html=1;entryX=1;entryY=0.3333333333333333;entryDx=0;entryDy=0;entryPerimeter=0;strokeWidth=1;strokeColor=default;endArrow=none;endFill=0;" edge="1" parent="1" source="Ivi0cPDOFDJ35AiVsCSt-4" target="Ivi0cPDOFDJ35AiVsCSt-1">
          <mxGeometry relative="1" as="geometry" />
        </mxCell>
        <mxCell id="Ivi0cPDOFDJ35AiVsCSt-4" value="회원 가입" style="rounded=1;whiteSpace=wrap;html=1;arcSize=40;fontColor=#000000;fillColor=#ffffc0;strokeColor=#ff0000;" vertex="1" parent="1">
          <mxGeometry x="190" y="-70" width="120" height="40" as="geometry" />
        </mxCell>
        <mxCell id="Ivi0cPDOFDJ35AiVsCSt-18" style="edgeStyle=none;rounded=0;orthogonalLoop=1;jettySize=auto;html=1;entryX=1;entryY=0.3333333333333333;entryDx=0;entryDy=0;entryPerimeter=0;strokeColor=default;strokeWidth=1;endArrow=none;endFill=0;" edge="1" parent="1" source="Ivi0cPDOFDJ35AiVsCSt-6" target="Ivi0cPDOFDJ35AiVsCSt-1">
          <mxGeometry relative="1" as="geometry" />
        </mxCell>
        <mxCell id="Ivi0cPDOFDJ35AiVsCSt-26" style="edgeStyle=none;rounded=0;orthogonalLoop=1;jettySize=auto;html=1;entryX=0.5;entryY=1;entryDx=0;entryDy=0;dashed=1;strokeColor=default;strokeWidth=1;endArrow=classic;endFill=1;exitX=1;exitY=0.25;exitDx=0;exitDy=0;" edge="1" parent="1" source="Ivi0cPDOFDJ35AiVsCSt-6" target="Ivi0cPDOFDJ35AiVsCSt-8">
          <mxGeometry relative="1" as="geometry" />
        </mxCell>
        <mxCell id="Ivi0cPDOFDJ35AiVsCSt-6" value="게시판 보기" style="rounded=1;whiteSpace=wrap;html=1;arcSize=40;fontColor=#000000;fillColor=#ffffc0;strokeColor=#ff0000;" vertex="1" parent="1">
          <mxGeometry x="190" y="70" width="120" height="40" as="geometry" />
        </mxCell>
        <mxCell id="Ivi0cPDOFDJ35AiVsCSt-20" style="edgeStyle=none;rounded=0;orthogonalLoop=1;jettySize=auto;html=1;entryX=1;entryY=0.3333333333333333;entryDx=0;entryDy=0;entryPerimeter=0;strokeColor=default;strokeWidth=1;endArrow=none;endFill=0;" edge="1" parent="1" source="Ivi0cPDOFDJ35AiVsCSt-7" target="Ivi0cPDOFDJ35AiVsCSt-1">
          <mxGeometry relative="1" as="geometry" />
        </mxCell>
        <mxCell id="Ivi0cPDOFDJ35AiVsCSt-27" style="edgeStyle=none;rounded=0;orthogonalLoop=1;jettySize=auto;html=1;exitX=0.917;exitY=0.25;exitDx=0;exitDy=0;entryX=0.5;entryY=1;entryDx=0;entryDy=0;dashed=1;strokeColor=default;strokeWidth=1;endArrow=classic;endFill=1;exitPerimeter=0;" edge="1" parent="1" source="Ivi0cPDOFDJ35AiVsCSt-7" target="Ivi0cPDOFDJ35AiVsCSt-8">
          <mxGeometry relative="1" as="geometry">
            <Array as="points">
              <mxPoint x="310" y="210" />
            </Array>
          </mxGeometry>
        </mxCell>
        <mxCell id="Ivi0cPDOFDJ35AiVsCSt-7" value="게시글 보기" style="rounded=1;whiteSpace=wrap;html=1;arcSize=40;fontColor=#000000;fillColor=#ffffc0;strokeColor=#ff0000;" vertex="1" parent="1">
          <mxGeometry x="190" y="200" width="120" height="40" as="geometry" />
        </mxCell>
        <mxCell id="Ivi0cPDOFDJ35AiVsCSt-21" value="&amp;lt;&amp;lt;include&amp;gt;&amp;gt;" style="edgeStyle=none;rounded=0;orthogonalLoop=1;jettySize=auto;html=1;entryX=0;entryY=0.5;entryDx=0;entryDy=0;strokeColor=default;strokeWidth=1;endArrow=classic;endFill=1;exitX=0.967;exitY=0.5;exitDx=0;exitDy=0;exitPerimeter=0;dashed=1;" edge="1" parent="1" source="Ivi0cPDOFDJ35AiVsCSt-8" target="Ivi0cPDOFDJ35AiVsCSt-9">
          <mxGeometry relative="1" as="geometry" />
        </mxCell>
        <mxCell id="Ivi0cPDOFDJ35AiVsCSt-22" style="edgeStyle=none;rounded=0;orthogonalLoop=1;jettySize=auto;html=1;entryX=1;entryY=0.3333333333333333;entryDx=0;entryDy=0;entryPerimeter=0;strokeColor=default;strokeWidth=1;endArrow=none;endFill=0;" edge="1" parent="1" source="Ivi0cPDOFDJ35AiVsCSt-8" target="Ivi0cPDOFDJ35AiVsCSt-1">
          <mxGeometry relative="1" as="geometry" />
        </mxCell>
        <mxCell id="Ivi0cPDOFDJ35AiVsCSt-23" style="edgeStyle=none;rounded=0;orthogonalLoop=1;jettySize=auto;html=1;entryX=1;entryY=0.5;entryDx=0;entryDy=0;strokeColor=default;strokeWidth=1;endArrow=classic;endFill=1;exitX=1;exitY=0.5;exitDx=0;exitDy=0;dashed=1;" edge="1" parent="1" source="Ivi0cPDOFDJ35AiVsCSt-8" target="Ivi0cPDOFDJ35AiVsCSt-8">
          <mxGeometry relative="1" as="geometry" />
        </mxCell>
        <mxCell id="Ivi0cPDOFDJ35AiVsCSt-8" value="회원 로그인" style="rounded=1;whiteSpace=wrap;html=1;arcSize=40;fontColor=#000000;fillColor=#ffffc0;strokeColor=#ff0000;" vertex="1" parent="1">
          <mxGeometry x="294" y="-160" width="120" height="40" as="geometry" />
        </mxCell>
        <mxCell id="Ivi0cPDOFDJ35AiVsCSt-9" value="인증" style="rounded=1;whiteSpace=wrap;html=1;arcSize=40;fontColor=#000000;fillColor=#ffffc0;strokeColor=#ff0000;" vertex="1" parent="1">
          <mxGeometry x="610" y="-160" width="120" height="40" as="geometry" />
        </mxCell>
        <mxCell id="Ivi0cPDOFDJ35AiVsCSt-24" value="&amp;lt;&amp;lt;extend&amp;gt;&amp;gt;" style="edgeStyle=none;rounded=0;orthogonalLoop=1;jettySize=auto;html=1;entryX=1;entryY=0.5;entryDx=0;entryDy=0;dashed=1;strokeColor=default;strokeWidth=1;endArrow=classic;endFill=1;" edge="1" parent="1" source="Ivi0cPDOFDJ35AiVsCSt-10" target="Ivi0cPDOFDJ35AiVsCSt-8">
          <mxGeometry relative="1" as="geometry" />
        </mxCell>
        <mxCell id="Ivi0cPDOFDJ35AiVsCSt-10" value="로그인 실패" style="rounded=1;whiteSpace=wrap;html=1;arcSize=40;fontColor=#000000;fillColor=#ffffc0;strokeColor=#ff0000;" vertex="1" parent="1">
          <mxGeometry x="610" y="-70" width="120" height="40" as="geometry" />
        </mxCell>
        <mxCell id="Ivi0cPDOFDJ35AiVsCSt-28" style="edgeStyle=none;rounded=0;orthogonalLoop=1;jettySize=auto;html=1;entryX=1;entryY=0.5;entryDx=0;entryDy=0;dashed=1;strokeColor=default;strokeWidth=1;endArrow=classic;endFill=1;" edge="1" parent="1" source="Ivi0cPDOFDJ35AiVsCSt-11" target="Ivi0cPDOFDJ35AiVsCSt-6">
          <mxGeometry relative="1" as="geometry" />
        </mxCell>
        <mxCell id="Ivi0cPDOFDJ35AiVsCSt-11" value="게시판 정렬" style="rounded=1;whiteSpace=wrap;html=1;arcSize=40;fontColor=#000000;fillColor=#ffffc0;strokeColor=#ff0000;" vertex="1" parent="1">
          <mxGeometry x="395" y="20" width="120" height="40" as="geometry" />
        </mxCell>
        <mxCell id="Ivi0cPDOFDJ35AiVsCSt-29" style="edgeStyle=none;rounded=0;orthogonalLoop=1;jettySize=auto;html=1;dashed=1;strokeColor=default;strokeWidth=1;endArrow=classic;endFill=1;" edge="1" parent="1" source="Ivi0cPDOFDJ35AiVsCSt-12">
          <mxGeometry relative="1" as="geometry">
            <mxPoint x="310" y="89.99999999999977" as="targetPoint" />
          </mxGeometry>
        </mxCell>
        <mxCell id="Ivi0cPDOFDJ35AiVsCSt-12" value="게시판 검색" style="rounded=1;whiteSpace=wrap;html=1;arcSize=40;fontColor=#000000;fillColor=#ffffc0;strokeColor=#ff0000;" vertex="1" parent="1">
          <mxGeometry x="395" y="140" width="120" height="40" as="geometry" />
        </mxCell>
        <mxCell id="Ivi0cPDOFDJ35AiVsCSt-30" style="edgeStyle=none;rounded=0;orthogonalLoop=1;jettySize=auto;html=1;exitX=0;exitY=0.25;exitDx=0;exitDy=0;entryX=1;entryY=0.5;entryDx=0;entryDy=0;dashed=1;strokeColor=default;strokeWidth=1;endArrow=classic;endFill=1;" edge="1" parent="1" source="Ivi0cPDOFDJ35AiVsCSt-13" target="Ivi0cPDOFDJ35AiVsCSt-7">
          <mxGeometry relative="1" as="geometry" />
        </mxCell>
        <mxCell id="Ivi0cPDOFDJ35AiVsCSt-13" value="게시글 쓰기, 수정, 삭제" style="rounded=1;whiteSpace=wrap;html=1;arcSize=40;fontColor=#000000;fillColor=#ffffc0;strokeColor=#ff0000;" vertex="1" parent="1">
          <mxGeometry x="387.5" y="210" width="135" height="40" as="geometry" />
        </mxCell>
        <mxCell id="Ivi0cPDOFDJ35AiVsCSt-31" style="edgeStyle=none;rounded=0;orthogonalLoop=1;jettySize=auto;html=1;exitX=0;exitY=0.25;exitDx=0;exitDy=0;entryX=1;entryY=0.5;entryDx=0;entryDy=0;dashed=1;strokeColor=default;strokeWidth=1;endArrow=classic;endFill=1;" edge="1" parent="1" source="Ivi0cPDOFDJ35AiVsCSt-14" target="Ivi0cPDOFDJ35AiVsCSt-7">
          <mxGeometry relative="1" as="geometry" />
        </mxCell>
        <mxCell id="Ivi0cPDOFDJ35AiVsCSt-14" value="댓글 보기, 쓰기,&lt;br&gt;&amp;nbsp;수정, 삭제" style="rounded=1;whiteSpace=wrap;html=1;arcSize=40;fontColor=#000000;fillColor=#ffffc0;strokeColor=#ff0000;" vertex="1" parent="1">
          <mxGeometry x="387.5" y="270" width="135" height="40" as="geometry" />
        </mxCell>
      </root>
    </mxGraphModel>
  </diagram>
</mxfile>
